<mxfile host="app.diagrams.net" modified="2024-05-01T09:19:24.853Z" agent="Mozilla/5.0 (Windows NT 10.0; Win64; x64) AppleWebKit/537.36 (KHTML, like Gecko) Chrome/124.0.0.0 Safari/537.36" version="24.3.1" etag="hDbwZIscwY6C7PKSlsz7" type="github">
  <diagram name="StrÃ¡nka-1" id="WdBs9P5Sa1kVAXRBLLyK">
    <mxGraphModel>
      <root>
        <mxCell id="0" />
        <mxCell id="1" parent="0" />
      </root>
    </mxGraphModel>
  </diagram>
</mxfile>
